# Blender 5.0.1
# www.blender.org
mtllib coin.mtl
o Cylinder
v 0.000000 2.550000 -0.500000
v 0.000000 2.550000 0.500000
v 0.497480 2.501002 -0.500000
v 0.497480 2.501003 0.500000
v 0.975843 2.355892 -0.500000
v 0.975843 2.355893 0.500000
v 1.416704 2.120247 -0.500000
v 1.416704 2.120248 0.500000
v 1.803122 1.803122 -0.500000
v 1.803122 1.803122 0.500000
v 2.120247 1.416704 -0.500000
v 2.120247 1.416704 0.500000
v 2.355893 0.975843 -0.500000
v 2.355893 0.975843 0.500000
v 2.501002 0.497480 -0.500000
v 2.501002 0.497481 0.500000
v 2.550000 -0.000000 -0.500000
v 2.550000 0.000000 0.500000
v 2.501002 -0.497481 -0.500000
v 2.501002 -0.497480 0.500000
v 2.355893 -0.975843 -0.500000
v 2.355893 -0.975843 0.500000
v 2.120247 -1.416704 -0.500000
v 2.120247 -1.416704 0.500000
v 1.803122 -1.803122 -0.500000
v 1.803122 -1.803122 0.500000
v 1.416704 -2.120248 -0.500000
v 1.416704 -2.120247 0.500000
v 0.975843 -2.355893 -0.500000
v 0.975843 -2.355892 0.500000
v 0.497480 -2.501003 -0.500000
v 0.497480 -2.501002 0.500000
v 0.000000 -2.550000 -0.500000
v 0.000000 -2.550000 0.500000
v -0.497480 -2.501003 -0.500000
v -0.497480 -2.501002 0.500000
v -0.975843 -2.355893 -0.500000
v -0.975843 -2.355892 0.500000
v -1.416704 -2.120248 -0.500000
v -1.416704 -2.120247 0.500000
v -1.803122 -1.803122 -0.500000
v -1.803122 -1.803122 0.500000
v -2.120247 -1.416704 -0.500000
v -2.120247 -1.416704 0.500000
v -2.355893 -0.975843 -0.500000
v -2.355893 -0.975843 0.500000
v -2.501002 -0.497481 -0.500000
v -2.501002 -0.497480 0.500000
v -2.550000 -0.000000 -0.500000
v -2.550000 0.000000 0.500000
v -2.501002 0.497480 -0.500000
v -2.501002 0.497481 0.500000
v -2.355893 0.975843 -0.500000
v -2.355893 0.975843 0.500000
v -2.120247 1.416704 -0.500000
v -2.120247 1.416704 0.500000
v -1.803122 1.803122 -0.500000
v -1.803122 1.803122 0.500000
v -1.416704 2.120247 -0.500000
v -1.416704 2.120248 0.500000
v -0.975843 2.355892 -0.500000
v -0.975843 2.355893 0.500000
v -0.497480 2.501002 -0.500000
v -0.497480 2.501003 0.500000
v 0.000000 2.040000 -0.500000
v 0.397984 2.000802 -0.500000
v 0.397984 2.000802 0.500000
v 0.000000 2.040000 0.500000
v 0.780674 1.884714 -0.500000
v 0.780674 1.884714 0.500000
v 1.133363 1.696198 -0.500000
v 1.133363 1.696198 0.500000
v 1.442498 1.442498 -0.500000
v 1.442498 1.442498 0.500000
v 1.696198 1.133363 -0.500000
v 1.696198 1.133363 0.500000
v 1.884714 0.780674 -0.500000
v 1.884714 0.780674 0.500000
v 2.000802 0.397984 -0.500000
v 2.000802 0.397984 0.500000
v 2.040000 -0.000000 -0.500000
v 2.040000 0.000000 0.500000
v 2.000802 -0.397984 -0.500000
v 2.000802 -0.397984 0.500000
v 1.884714 -0.780674 -0.500000
v 1.884714 -0.780674 0.500000
v 1.696198 -1.133363 -0.500000
v 1.696198 -1.133363 0.500000
v 1.442498 -1.442498 -0.500000
v 1.442498 -1.442498 0.500000
v 1.133363 -1.696198 -0.500000
v 1.133363 -1.696198 0.500000
v 0.780674 -1.884714 -0.500000
v 0.780674 -1.884714 0.500000
v 0.397984 -2.000802 -0.500000
v 0.397984 -2.000802 0.500000
v 0.000000 -2.040000 -0.500000
v 0.000000 -2.040000 0.500000
v -0.397984 -2.000802 -0.500000
v -0.397984 -2.000802 0.500000
v -0.780674 -1.884714 -0.500000
v -0.780674 -1.884714 0.500000
v -1.133363 -1.696198 -0.500000
v -1.133363 -1.696198 0.500000
v -1.442498 -1.442498 -0.500000
v -1.442498 -1.442498 0.500000
v -1.696198 -1.133363 -0.500000
v -1.696198 -1.133363 0.500000
v -1.884714 -0.780674 -0.500000
v -1.884714 -0.780674 0.500000
v -2.000802 -0.397984 -0.500000
v -2.000802 -0.397984 0.500000
v -2.040000 -0.000000 -0.500000
v -2.040000 0.000000 0.500000
v -2.000802 0.397984 -0.500000
v -2.000802 0.397984 0.500000
v -1.884714 0.780674 -0.500000
v -1.884714 0.780674 0.500000
v -1.696198 1.133363 -0.500000
v -1.696198 1.133363 0.500000
v -1.442498 1.442498 -0.500000
v -1.442498 1.442498 0.500000
v -1.133363 1.696198 -0.500000
v -1.133363 1.696198 0.500000
v -0.780674 1.884714 -0.500000
v -0.780674 1.884714 0.500000
v -0.397984 2.000802 -0.500000
v -0.397984 2.000802 0.500000
v 0.397984 2.000802 0.200000
v 0.000000 2.040000 0.200000
v 0.780674 1.884714 0.200000
v 1.133363 1.696198 0.200000
v 1.442498 1.442498 0.200000
v 1.696198 1.133363 0.200000
v 1.884714 0.780674 0.200000
v 2.000802 0.397984 0.200000
v 2.040000 0.000000 0.200000
v 2.000802 -0.397984 0.200000
v 1.884714 -0.780674 0.200000
v 1.696198 -1.133363 0.200000
v 1.442498 -1.442498 0.200000
v 1.133363 -1.696198 0.200000
v 0.780674 -1.884714 0.200000
v 0.397984 -2.000802 0.200000
v 0.000000 -2.040000 0.200000
v -0.397984 -2.000802 0.200000
v -0.780674 -1.884714 0.200000
v -1.133363 -1.696198 0.200000
v -1.442498 -1.442498 0.200000
v -1.696198 -1.133363 0.200000
v -1.884714 -0.780674 0.200000
v -2.000802 -0.397984 0.200000
v -2.040000 0.000000 0.200000
v -2.000802 0.397984 0.200000
v -1.884714 0.780674 0.200000
v -1.696198 1.133363 0.200000
v -1.442498 1.442498 0.200000
v -1.133363 1.696198 0.200000
v -0.780674 1.884714 0.200000
v -0.397984 2.000802 0.200000
v 0.000000 2.040000 -0.200000
v 0.397984 2.000802 -0.200000
v 0.780674 1.884714 -0.200000
v 1.133363 1.696198 -0.200000
v 1.442498 1.442498 -0.200000
v 1.696198 1.133363 -0.200000
v 1.884714 0.780674 -0.200000
v 2.000802 0.397984 -0.200000
v 2.040000 -0.000000 -0.200000
v 2.000802 -0.397984 -0.200000
v 1.884714 -0.780674 -0.200000
v 1.696198 -1.133363 -0.200000
v 1.442498 -1.442498 -0.200000
v 1.133363 -1.696198 -0.200000
v 0.780674 -1.884714 -0.200000
v 0.397984 -2.000802 -0.200000
v 0.000000 -2.040000 -0.200000
v -0.397984 -2.000802 -0.200000
v -0.780674 -1.884714 -0.200000
v -1.133363 -1.696198 -0.200000
v -1.442498 -1.442498 -0.200000
v -1.696198 -1.133363 -0.200000
v -1.884714 -0.780674 -0.200000
v -2.000802 -0.397984 -0.200000
v -2.040000 -0.000000 -0.200000
v -2.000802 0.397984 -0.200000
v -1.884714 0.780674 -0.200000
v -1.696198 1.133363 -0.200000
v -1.442498 1.442498 -0.200000
v -1.133363 1.696198 -0.200000
v -0.780674 1.884714 -0.200000
v -0.397984 2.000802 -0.200000
v 1.934375 -0.803125 -0.400000
v 1.885156 0.788281 -0.400000
v -0.016667 -0.983333 -0.400000
v -0.033333 1.166667 -0.400000
v -1.833334 -0.016667 -0.400000
v 2.066667 0.016667 -0.400000
v -0.316667 1.550000 -0.400000
v -0.700000 0.800000 -0.400000
v -1.433333 0.433333 -0.400000
v -1.516667 -0.533333 -0.400000
v -0.583333 -0.966667 -0.400000
v 0.483333 -0.866667 -0.400000
v 0.933333 -0.683333 -0.400000
v 1.266667 0.466667 -0.400000
v 0.816667 0.500000 -0.400000
v 1.739584 -0.875000 -0.400000
v 2.031250 0.512500 -0.400000
v -0.300000 -0.993750 -0.400000
v 0.202083 0.912500 -0.400000
v 2.037500 -0.472917 -0.400000
v -0.193750 1.464583 -0.400000
v -1.054167 0.566667 -0.400000
v -1.300000 -0.691667 -0.400000
v -0.845833 -0.895833 -0.400000
v 0.245833 -0.943750 -0.400000
v 0.702083 -0.756250 -0.400000
v 1.202083 -0.710417 -0.400000
v 1.593750 0.681250 -0.400000
v 1.010417 0.420833 -0.400000
v -1.720833 0.239583 -0.400000
v -1.731250 -0.293750 -0.400000
v 1.934375 -0.803125 0.400000
v 1.885156 0.788281 0.400000
v -0.016667 -0.983333 0.400000
v -0.033333 1.166667 0.400000
v -1.833334 -0.016667 0.400000
v 2.066667 0.016667 0.400000
v -0.316667 1.550000 0.400000
v -0.700000 0.800000 0.400000
v -1.433333 0.433333 0.400000
v -1.516667 -0.533333 0.400000
v -0.583333 -0.966667 0.400000
v 0.483333 -0.866667 0.400000
v 0.933333 -0.683333 0.400000
v 1.266667 0.466667 0.400000
v 0.816667 0.500000 0.400000
v 1.739584 -0.875000 0.400000
v 2.031250 0.512500 0.400000
v -0.300000 -0.993750 0.400000
v 0.202083 0.912500 0.400000
v 2.037500 -0.472917 0.400000
v -0.193750 1.464584 0.400000
v -1.054167 0.566667 0.400000
v -1.300000 -0.691667 0.400000
v -0.845833 -0.895833 0.400000
v 0.245833 -0.943750 0.400000
v 0.702083 -0.756250 0.400000
v 1.202083 -0.710417 0.400000
v 1.593750 0.681250 0.400000
v 1.010417 0.420833 0.400000
v -1.720833 0.239583 0.400000
v -1.731250 -0.293750 0.400000
vn -0.0000 1.0000 -0.0000
vn 0.1951 0.9808 -0.0000
vn 0.3827 0.9239 -0.0000
vn 0.5556 0.8315 -0.0000
vn 0.7071 0.7071 -0.0000
vn 0.8315 0.5556 -0.0000
vn 0.9239 0.3827 -0.0000
vn 0.9808 0.1951 -0.0000
vn 1.0000 -0.0000 -0.0000
vn 0.9808 -0.1951 -0.0000
vn 0.9239 -0.3827 -0.0000
vn 0.8315 -0.5556 -0.0000
vn 0.7071 -0.7071 -0.0000
vn 0.5556 -0.8315 -0.0000
vn 0.3827 -0.9239 -0.0000
vn 0.1951 -0.9808 -0.0000
vn -0.0000 -1.0000 -0.0000
vn -0.1951 -0.9808 -0.0000
vn -0.3827 -0.9239 -0.0000
vn -0.5556 -0.8315 -0.0000
vn -0.7071 -0.7071 -0.0000
vn -0.8315 -0.5556 -0.0000
vn -0.9239 -0.3827 -0.0000
vn -0.9808 -0.1951 -0.0000
vn -1.0000 -0.0000 -0.0000
vn -0.9808 0.1951 -0.0000
vn -0.9239 0.3827 -0.0000
vn -0.8315 0.5556 -0.0000
vn -0.7071 0.7071 -0.0000
vn -0.5556 0.8315 -0.0000
vn -0.3827 0.9239 -0.0000
vn -0.0000 -0.0000 -1.0000
vn -0.1951 0.9808 -0.0000
vn -0.0000 -0.0000 1.0000
vn -0.2928 -0.9562 -0.0000
vn -0.1975 -0.9803 -0.0000
vn -0.0293 -0.9996 -0.0000
vn 0.0931 -0.9957 -0.0000
vn 0.7460 0.6659 -0.0000
vn 0.5707 0.8212 -0.0000
vn 0.2297 -0.9733 -0.0000
vn -0.8904 0.4551 -0.0000
vn -0.7449 0.6671 -0.0000
vn -0.5027 -0.8644 -0.0000
vn -0.3363 -0.9417 -0.0000
vn 0.3808 -0.9247 -0.0000
vn 0.6499 0.7601 -0.0000
vn 0.8136 0.5815 -0.0000
vn 0.3769 -0.9263 -0.0000
vn -0.4443 0.8959 -0.0000
vn 0.1023 -0.9948 -0.0000
vn -0.4489 0.8936 -0.0000
vn -0.5589 0.8293 -0.0000
vn -0.9156 0.4020 -0.0000
vn 0.9545 -0.2981 -0.0000
vn 0.9836 -0.1801 -0.0000
vn -0.6711 -0.7413 -0.0000
vn -0.9383 -0.3457 -0.0000
vn -0.8568 -0.5156 -0.0000
vn 1.0000 0.0059 -0.0000
vn -0.3448 0.9387 -0.0000
vn -0.4496 0.8932 -0.0000
vn -0.3698 0.9291 -0.0000
vn -0.1785 -0.9839 -0.0000
vn -0.1761 0.9844 -0.0000
vn 0.3462 -0.9382 -0.0000
vn 0.3782 0.9257 -0.0000
vn 0.4702 0.8826 -0.0000
vn 0.9613 0.2756 -0.0000
vn 0.8837 0.4681 -0.0000
vt 1.000000 0.500000
vt 1.000000 1.000000
vt 0.968750 1.000000
vt 0.968750 0.500000
vt 0.937500 1.000000
vt 0.937500 0.500000
vt 0.906250 1.000000
vt 0.906250 0.500000
vt 0.875000 1.000000
vt 0.875000 0.500000
vt 0.843750 1.000000
vt 0.843750 0.500000
vt 0.812500 1.000000
vt 0.812500 0.500000
vt 0.781250 1.000000
vt 0.781250 0.500000
vt 0.750000 1.000000
vt 0.750000 0.500000
vt 0.718750 1.000000
vt 0.718750 0.500000
vt 0.687500 1.000000
vt 0.687500 0.500000
vt 0.656250 1.000000
vt 0.656250 0.500000
vt 0.625000 1.000000
vt 0.625000 0.500000
vt 0.593750 1.000000
vt 0.593750 0.500000
vt 0.562500 1.000000
vt 0.562500 0.500000
vt 0.531250 1.000000
vt 0.531250 0.500000
vt 0.500000 1.000000
vt 0.500000 0.500000
vt 0.468750 1.000000
vt 0.468750 0.500000
vt 0.437500 1.000000
vt 0.437500 0.500000
vt 0.406250 1.000000
vt 0.406250 0.500000
vt 0.375000 1.000000
vt 0.375000 0.500000
vt 0.343750 1.000000
vt 0.343750 0.500000
vt 0.312500 1.000000
vt 0.312500 0.500000
vt 0.281250 1.000000
vt 0.281250 0.500000
vt 0.250000 1.000000
vt 0.250000 0.500000
vt 0.218750 1.000000
vt 0.218750 0.500000
vt 0.187500 1.000000
vt 0.187500 0.500000
vt 0.156250 1.000000
vt 0.156250 0.500000
vt 0.125000 1.000000
vt 0.125000 0.500000
vt 0.093750 1.000000
vt 0.093750 0.500000
vt 0.062500 1.000000
vt 0.062500 0.500000
vt 0.031250 1.000000
vt 0.031250 0.500000
vt 0.000000 1.000000
vt 0.000000 0.500000
vt 0.296822 0.485388
vt 0.250000 0.490000
vt 0.203178 0.485388
vt 0.158156 0.471731
vt 0.116663 0.449553
vt 0.080294 0.419706
vt 0.050447 0.383337
vt 0.028269 0.341844
vt 0.014612 0.296822
vt 0.010000 0.250000
vt 0.014612 0.203178
vt 0.028269 0.158156
vt 0.050447 0.116663
vt 0.080294 0.080294
vt 0.116663 0.050447
vt 0.158156 0.028269
vt 0.203178 0.014612
vt 0.250000 0.010000
vt 0.296822 0.014612
vt 0.341844 0.028269
vt 0.383337 0.050447
vt 0.419706 0.080294
vt 0.449553 0.116663
vt 0.471731 0.158156
vt 0.485388 0.203178
vt 0.490000 0.250000
vt 0.485388 0.296822
vt 0.471731 0.341844
vt 0.449553 0.383337
vt 0.419706 0.419706
vt 0.383337 0.449553
vt 0.341844 0.471731
vt 0.750000 0.490000
vt 0.796822 0.485388
vt 0.841844 0.471731
vt 0.883337 0.449553
vt 0.919706 0.419706
vt 0.949553 0.383337
vt 0.971731 0.341844
vt 0.985388 0.296822
vt 0.990000 0.250000
vt 0.985388 0.203178
vt 0.971731 0.158156
vt 0.949553 0.116663
vt 0.919706 0.080294
vt 0.883337 0.050447
vt 0.841844 0.028269
vt 0.796822 0.014612
vt 0.750000 0.010000
vt 0.703178 0.014612
vt 0.658156 0.028269
vt 0.616663 0.050447
vt 0.580294 0.080294
vt 0.550447 0.116663
vt 0.528269 0.158156
vt 0.514612 0.203178
vt 0.510000 0.250000
vt 0.514612 0.296822
vt 0.528269 0.341844
vt 0.550447 0.383337
vt 0.580294 0.419706
vt 0.616663 0.449553
vt 0.658156 0.471731
vt 0.703178 0.485388
vt 0.937500 1.000000
vt 1.000000 1.000000
vt 1.000000 0.750000
vt 1.000000 0.250000
vt 1.000000 0.000000
vt 0.937500 0.000000
vt 0.812500 0.000000
vt 0.750000 0.000000
vt 0.687500 0.000000
vt 0.625000 0.000000
vt 0.562500 0.000000
vt 0.500000 0.000000
vt 0.437500 0.000000
vt 0.375000 0.000000
vt 0.312500 0.000000
vt 0.187500 0.000000
vt 0.125000 0.000000
vt 0.062500 0.000000
vt 0.000000 0.500000
vt 0.062500 0.750000
vt 0.125000 1.000000
vt 0.187500 1.000000
vt 0.250000 1.000000
vt 0.437500 1.000000
vt 0.562500 1.000000
vt 0.812500 1.000000
vt 0.000000 0.000000
s 1
usemtl Material
f 129/67/34 130/68/34 160/69/34 159/70/34 158/71/34 157/72/34 156/73/34 155/74/34 154/75/34 153/76/34 152/77/34 151/78/34 150/79/34 149/80/34 148/81/34 147/82/34 146/83/34 145/84/34 144/85/34 143/86/34 142/87/34 141/88/34 140/89/34 139/90/34 138/91/34 137/92/34 136/93/34 135/94/34 134/95/34 133/96/34 132/97/34 131/98/34
f 161/99/32 162/100/32 163/101/32 164/102/32 165/103/32 166/104/32 167/105/32 168/106/32 169/107/32 170/108/32 171/109/32 172/110/32 173/111/32 174/112/32 175/113/32 176/114/32 177/115/32 178/116/32 179/117/32 180/118/32 181/119/32 182/120/32 183/121/32 184/122/32 185/123/32 186/124/32 187/125/32 188/126/32 189/127/32 190/128/32 191/129/32 192/130/32
usemtl Material.001
f 1/1/1 2/2/1 4/3/2 3/4/2
f 3/4/2 4/3/2 6/5/3 5/6/3
f 5/6/3 6/5/3 8/7/4 7/8/4
f 7/8/4 8/7/4 10/9/5 9/10/5
f 9/10/5 10/9/5 12/11/6 11/12/6
f 11/12/6 12/11/6 14/13/7 13/14/7
f 13/14/7 14/13/7 16/15/8 15/16/8
f 15/16/8 16/15/8 18/17/9 17/18/9
f 17/18/9 18/17/9 20/19/10 19/20/10
f 19/20/10 20/19/10 22/21/11 21/22/11
f 21/22/11 22/21/11 24/23/12 23/24/12
f 23/24/12 24/23/12 26/25/13 25/26/13
f 25/26/13 26/25/13 28/27/14 27/28/14
f 27/28/14 28/27/14 30/29/15 29/30/15
f 29/30/15 30/29/15 32/31/16 31/32/16
f 31/32/16 32/31/16 34/33/17 33/34/17
f 33/34/17 34/33/17 36/35/18 35/36/18
f 35/36/18 36/35/18 38/37/19 37/38/19
f 37/38/19 38/37/19 40/39/20 39/40/20
f 39/40/20 40/39/20 42/41/21 41/42/21
f 41/42/21 42/41/21 44/43/22 43/44/22
f 43/44/22 44/43/22 46/45/23 45/46/23
f 45/46/23 46/45/23 48/47/24 47/48/24
f 47/48/24 48/47/24 50/49/25 49/50/25
f 49/50/25 50/49/25 52/51/26 51/52/26
f 51/52/26 52/51/26 54/53/27 53/54/27
f 53/54/27 54/53/27 56/55/28 55/56/28
f 55/56/28 56/55/28 58/57/29 57/58/29
f 57/58/29 58/57/29 60/59/30 59/60/30
f 59/60/30 60/59/30 62/61/31 61/62/31
f 29/30/32 31/32/32 95/32/32 93/30/32
f 61/62/31 62/61/31 64/63/33 63/64/33
f 63/64/33 64/63/33 2/65/1 1/66/1
f 2/65/34 64/63/34 128/63/34 68/65/34
f 116/51/10 114/49/9 153/49/9 154/51/10
f 87/24/28 89/26/29 173/26/29 172/24/28
f 14/13/34 12/11/34 76/11/34 78/13/34
f 47/48/32 49/50/32 113/50/32 111/48/32
f 32/31/34 30/29/34 94/29/34 96/31/34
f 50/49/34 48/47/34 112/47/34 114/49/34
f 13/14/32 15/16/32 79/16/32 77/14/32
f 31/32/32 33/34/32 97/34/32 95/32/32
f 16/15/34 14/13/34 78/13/34 80/15/34
f 49/50/32 51/52/32 115/52/32 113/50/32
f 34/33/34 32/31/34 96/31/34 98/33/34
f 52/51/34 50/49/34 114/49/34 116/51/34
f 15/16/32 17/18/32 81/18/32 79/16/32
f 33/34/32 35/36/32 99/36/32 97/34/32
f 18/17/34 16/15/34 80/15/34 82/17/34
f 51/52/32 53/54/32 117/54/32 115/52/32
f 36/35/34 34/33/34 98/33/34 100/35/34
f 54/53/34 52/51/34 116/51/34 118/53/34
f 17/18/32 19/20/32 83/20/32 81/18/32
f 35/36/32 37/38/32 101/38/32 99/36/32
f 20/19/34 18/17/34 82/17/34 84/19/34
f 1/1/32 3/4/32 66/4/32 65/1/32
f 53/54/32 55/56/32 119/56/32 117/54/32
f 38/37/34 36/35/34 100/35/34 102/37/34
f 4/3/34 2/2/34 68/2/34 67/3/34
f 56/55/34 54/53/34 118/53/34 120/55/34
f 19/20/32 21/22/32 85/22/32 83/20/32
f 37/38/32 39/40/32 103/40/32 101/38/32
f 22/21/34 20/19/34 84/19/34 86/21/34
f 55/56/32 57/58/32 121/58/32 119/56/32
f 40/39/34 38/37/34 102/37/34 104/39/34
f 3/4/32 5/6/32 69/6/32 66/4/32
f 58/57/34 56/55/34 120/55/34 122/57/34
f 21/22/32 23/24/32 87/24/32 85/22/32
f 6/5/34 4/3/34 67/3/34 70/5/34
f 39/40/32 41/42/32 105/42/32 103/40/32
f 24/23/34 22/21/34 86/21/34 88/23/34
f 57/58/32 59/60/32 123/60/32 121/58/32
f 42/41/34 40/39/34 104/39/34 106/41/34
f 5/6/32 7/8/32 71/8/32 69/6/32
f 60/59/34 58/57/34 122/57/34 124/59/34
f 23/24/32 25/26/32 89/26/32 87/24/32
f 8/7/34 6/5/34 70/5/34 72/7/34
f 41/42/32 43/44/32 107/44/32 105/42/32
f 26/25/34 24/23/34 88/23/34 90/25/34
f 59/60/32 61/62/32 125/62/32 123/60/32
f 44/43/34 42/41/34 106/41/34 108/43/34
f 7/8/32 9/10/32 73/10/32 71/8/32
f 62/61/34 60/59/34 124/59/34 126/61/34
f 25/26/32 27/28/32 91/28/32 89/26/32
f 10/9/34 8/7/34 72/7/34 74/9/34
f 43/44/32 45/46/32 109/46/32 107/44/32
f 28/27/34 26/25/34 90/25/34 92/27/34
f 61/62/32 63/64/32 127/64/32 125/62/32
f 46/45/34 44/43/34 108/43/34 110/45/34
f 9/10/32 11/12/32 75/12/32 73/10/32
f 64/63/34 62/61/34 126/61/34 128/63/34
f 27/28/32 29/30/32 93/30/32 91/28/32
f 12/11/34 10/9/34 74/9/34 76/11/34
f 45/46/32 47/48/32 111/48/32 109/46/32
f 30/29/34 28/27/34 92/27/34 94/29/34
f 63/64/32 1/66/32 65/66/32 127/64/32
f 48/47/34 46/45/34 110/45/34 112/47/34
f 11/12/32 13/14/32 77/14/32 75/12/32
f 76/11/22 74/9/21 133/9/21 134/11/22
f 68/65/17 128/63/16 160/63/16 130/65/17
f 90/25/29 88/23/28 140/23/28 141/25/29
f 104/39/4 102/37/3 147/37/3 148/39/4
f 118/53/11 116/51/10 154/51/10 155/53/11
f 78/13/23 76/11/22 134/11/22 135/13/23
f 92/27/30 90/25/29 141/25/29 142/27/30
f 106/41/5 104/39/4 148/39/4 149/41/5
f 120/55/12 118/53/11 155/53/11 156/55/12
f 80/15/24 78/13/23 135/13/23 136/15/24
f 94/29/31 92/27/30 142/27/30 143/29/31
f 108/43/6 106/41/5 149/41/5 150/43/6
f 67/3/18 68/2/17 130/2/17 129/3/18
f 122/57/13 120/55/12 156/55/12 157/57/13
f 82/17/25 80/15/24 136/15/24 137/17/25
f 96/31/33 94/29/31 143/29/31 144/31/33
f 110/45/7 108/43/6 150/43/6 151/45/7
f 70/5/19 67/3/18 129/3/18 131/5/19
f 124/59/14 122/57/13 157/57/13 158/59/14
f 84/19/26 82/17/25 137/17/25 138/19/26
f 98/33/1 96/31/33 144/31/33 145/33/1
f 112/47/8 110/45/7 151/45/7 152/47/8
f 72/7/20 70/5/19 131/5/19 132/7/20
f 126/61/15 124/59/14 158/59/14 159/61/15
f 86/21/27 84/19/26 138/19/26 139/21/27
f 100/35/2 98/33/1 145/33/1 146/35/2
f 114/49/9 112/47/8 152/47/8 153/49/9
f 74/9/21 72/7/20 132/7/20 133/9/21
f 128/63/16 126/61/15 159/61/15 160/63/16
f 88/23/28 86/21/27 139/21/27 140/23/28
f 102/37/3 100/35/2 146/35/2 147/37/3
f 101/38/3 103/40/4 180/40/4 179/38/3
f 115/52/10 117/54/11 187/54/11 186/52/10
f 75/12/22 77/14/23 167/14/23 166/12/22
f 89/26/29 91/28/30 174/28/30 173/26/29
f 103/40/4 105/42/5 181/42/5 180/40/4
f 117/54/11 119/56/12 188/56/12 187/54/11
f 77/14/23 79/16/24 168/16/24 167/14/23
f 91/28/30 93/30/31 175/30/31 174/28/30
f 105/42/5 107/44/6 182/44/6 181/42/5
f 65/1/17 66/4/18 162/4/18 161/1/17
f 119/56/12 121/58/13 189/58/13 188/56/12
f 79/16/24 81/18/25 169/18/25 168/16/24
f 93/30/31 95/32/33 176/32/33 175/30/31
f 107/44/6 109/46/7 183/46/7 182/44/6
f 66/4/18 69/6/19 163/6/19 162/4/18
f 121/58/13 123/60/14 190/60/14 189/58/13
f 81/18/25 83/20/26 170/20/26 169/18/25
f 95/32/33 97/34/1 177/34/1 176/32/33
f 109/46/7 111/48/8 184/48/8 183/46/7
f 69/6/19 71/8/20 164/8/20 163/6/19
f 123/60/14 125/62/15 191/62/15 190/60/14
f 83/20/26 85/22/27 171/22/27 170/20/26
f 97/34/1 99/36/2 178/36/2 177/34/1
f 111/48/8 113/50/9 185/50/9 184/48/8
f 71/8/20 73/10/21 165/10/21 164/8/20
f 125/62/15 127/64/16 192/64/16 191/62/15
f 85/22/27 87/24/28 172/24/28 171/22/27
f 99/36/2 101/38/3 179/38/3 178/36/2
f 113/50/9 115/52/10 186/52/10 185/50/9
f 73/10/21 75/12/22 166/12/22 165/10/21
f 127/64/16 65/66/17 161/66/17 192/64/16
f 220/131/32 194/132/32 209/133/32 198/1/32 212/134/32 193/135/32 208/136/32 219/137/32 205/138/32 218/139/32 204/140/32 217/141/32 195/142/32 210/143/32 203/144/32 216/145/32 215/146/32 202/147/32 223/148/32 197/149/32 222/150/32 201/151/32 214/152/32 200/153/32 199/41/32 213/154/32 196/33/32 211/155/32 207/17/32 221/156/32 206/9/32
f 243/134/34 229/1/34 240/133/34 225/132/34 251/131/34 237/9/34 252/156/34 238/17/34 242/155/34 227/33/34 244/154/34 230/41/34 231/153/34 245/152/34 232/151/34 253/150/34 228/157/34 254/148/34 233/147/34 246/146/34 247/145/34 234/144/34 241/143/34 226/142/34 248/141/34 235/140/34 249/139/34 236/138/34 250/137/34 239/136/34 224/135/34
f 208/136/35 239/136/35 250/137/36 219/137/36
f 210/143/37 195/142/38 226/142/38 241/143/37
f 213/154/39 199/41/40 230/41/40 244/154/39
f 195/142/38 217/141/41 248/141/41 226/142/38
f 199/41/42 200/153/43 231/153/43 230/41/42
f 215/146/44 216/145/45 247/145/45 246/146/44
f 217/141/41 204/140/46 235/140/46 248/141/41
f 211/155/47 196/33/48 227/33/48 242/155/47
f 204/140/46 218/139/49 249/139/49 235/140/46
f 200/153/43 214/152/50 245/152/50 231/153/43
f 218/139/49 205/138/51 236/138/51 249/139/49
f 201/151/52 222/150/53 253/150/53 232/151/52
f 214/152/50 201/151/52 232/151/52 245/152/50
f 205/138/51 219/137/36 250/137/36 236/138/51
f 222/150/54 197/149/54 228/149/54 253/150/54
f 193/135/55 212/134/56 243/134/56 224/135/55
f 202/147/57 215/146/44 246/146/44 233/147/57
f 197/157/58 223/148/59 254/148/59 228/157/58
f 212/134/56 198/1/60 229/1/60 243/134/56
f 194/132/61 220/131/62 251/131/62 225/132/61
f 223/148/59 202/147/57 233/147/57 254/148/59
f 220/131/62 206/9/63 237/9/63 251/131/62
f 216/145/45 203/144/64 234/144/64 247/145/45
f 206/9/63 221/156/65 252/156/65 237/9/63
f 208/136/66 193/135/66 224/135/66 239/136/66
f 221/156/67 207/17/68 238/17/68 252/156/67
f 198/1/60 209/133/69 240/133/69 229/1/60
f 207/17/68 211/155/47 242/155/47 238/17/68
f 209/133/69 194/132/70 225/132/70 240/133/69
f 203/144/64 210/143/37 241/143/37 234/144/64
f 196/33/48 213/154/39 244/154/39 227/33/48
