# Blender 5.0.1
# www.blender.org
o Cube.001
v -0.625000 -0.750000 0.625000
v -0.625000 -0.625000 0.750000
v -0.750000 -0.625000 0.625000
v -0.625000 -0.733300 0.687418
v -0.687418 -0.733300 0.625000
v -0.684776 -0.717079 0.684776
v -0.687418 -0.625000 0.733300
v -0.625000 -0.687418 0.733300
v -0.684776 -0.684776 0.717079
v -0.733300 -0.687418 0.625000
v -0.733300 -0.625000 0.687418
v -0.717079 -0.684776 0.684776
v -0.625000 0.625000 0.750000
v -0.625000 0.750000 0.625000
v -0.750000 0.625000 0.625000
v -0.625000 0.687418 0.733300
v -0.687418 0.625000 0.733300
v -0.684776 0.684776 0.717079
v -0.687418 0.733300 0.625000
v -0.625000 0.733300 0.687418
v -0.684776 0.717079 0.684776
v -0.733300 0.625000 0.687418
v -0.733300 0.687418 0.625000
v -0.717079 0.684776 0.684776
v -0.625000 -0.750000 -0.625000
v -0.750000 -0.625000 -0.625000
v -0.625000 -0.625000 -0.750000
v -0.687418 -0.733300 -0.625000
v -0.625000 -0.733300 -0.687418
v -0.684776 -0.717079 -0.684776
v -0.733300 -0.625000 -0.687418
v -0.733300 -0.687418 -0.625000
v -0.717079 -0.684776 -0.684776
v -0.625000 -0.687418 -0.733300
v -0.687418 -0.625000 -0.733300
v -0.684776 -0.684776 -0.717079
v -0.625000 0.750000 -0.625000
v -0.625000 0.625000 -0.750000
v -0.750000 0.625000 -0.625000
v -0.625000 0.733300 -0.687418
v -0.687418 0.733300 -0.625000
v -0.684776 0.717079 -0.684776
v -0.687418 0.625000 -0.733300
v -0.625000 0.687418 -0.733300
v -0.684776 0.684776 -0.717079
v -0.733300 0.687418 -0.625000
v -0.733300 0.625000 -0.687418
v -0.717079 0.684776 -0.684776
v 0.625000 -0.750000 0.625000
v 0.750000 -0.625000 0.625000
v 0.625000 -0.625000 0.750000
v 0.687418 -0.733300 0.625000
v 0.625000 -0.733300 0.687418
v 0.684776 -0.717079 0.684776
v 0.733300 -0.625000 0.687418
v 0.733300 -0.687418 0.625000
v 0.717079 -0.684776 0.684776
v 0.625000 -0.687418 0.733300
v 0.687418 -0.625000 0.733300
v 0.684776 -0.684776 0.717079
v 0.625000 0.750000 0.625000
v 0.625000 0.625000 0.750000
v 0.750000 0.625000 0.625000
v 0.625000 0.733300 0.687418
v 0.687418 0.733300 0.625000
v 0.684776 0.717079 0.684776
v 0.687418 0.625000 0.733300
v 0.625000 0.687418 0.733300
v 0.684776 0.684776 0.717079
v 0.733300 0.687418 0.625000
v 0.733300 0.625000 0.687418
v 0.717079 0.684776 0.684776
v 0.625000 -0.750000 -0.625000
v 0.625000 -0.625000 -0.750000
v 0.750000 -0.625000 -0.625000
v 0.625000 -0.733300 -0.687418
v 0.687418 -0.733300 -0.625000
v 0.684776 -0.717079 -0.684776
v 0.687418 -0.625000 -0.733300
v 0.625000 -0.687418 -0.733300
v 0.684776 -0.684776 -0.717079
v 0.733300 -0.687418 -0.625000
v 0.733300 -0.625000 -0.687418
v 0.717079 -0.684776 -0.684776
v 0.625000 0.750000 -0.625000
v 0.750000 0.625000 -0.625000
v 0.625000 0.625000 -0.750000
v 0.687418 0.733300 -0.625000
v 0.625000 0.733300 -0.687418
v 0.684776 0.717079 -0.684776
v 0.733300 0.625000 -0.687418
v 0.733300 0.687418 -0.625000
v 0.717079 0.684776 -0.684776
v 0.625000 0.687418 -0.733300
v 0.687418 0.625000 -0.733300
v 0.684776 0.684776 -0.717079
vn -0.1296 -0.9831 0.1296
vn -0.1216 -0.8623 0.4915
vn -0.4473 -0.7744 0.4473
vn -0.4915 -0.8623 0.1216
vn -0.1216 -0.4915 0.8623
vn -0.4473 -0.4473 0.7744
vn -0.1296 -0.1296 0.9831
vn -0.4915 -0.1216 0.8623
vn -0.8623 -0.1216 0.4915
vn -0.7744 -0.4473 0.4473
vn -0.9831 -0.1296 0.1296
vn -0.8623 -0.4915 0.1216
vn -0.1296 0.1296 0.9831
vn -0.1216 0.4915 0.8623
vn -0.4473 0.4473 0.7744
vn -0.4915 0.1216 0.8623
vn -0.1216 0.8623 0.4915
vn -0.4473 0.7744 0.4473
vn -0.1296 0.9831 0.1296
vn -0.4915 0.8623 0.1216
vn -0.8623 0.4915 0.1216
vn -0.7744 0.4473 0.4473
vn -0.9831 0.1296 0.1296
vn -0.8623 0.1216 0.4915
vn -0.1296 -0.9831 -0.1296
vn -0.4915 -0.8623 -0.1216
vn -0.4473 -0.7744 -0.4473
vn -0.1216 -0.8623 -0.4915
vn -0.8623 -0.4915 -0.1216
vn -0.7744 -0.4473 -0.4473
vn -0.9831 -0.1296 -0.1296
vn -0.8623 -0.1216 -0.4915
vn -0.4915 -0.1216 -0.8623
vn -0.4473 -0.4473 -0.7744
vn -0.1296 -0.1296 -0.9831
vn -0.1216 -0.4915 -0.8623
vn -0.1296 0.9831 -0.1296
vn -0.1216 0.8623 -0.4915
vn -0.4473 0.7744 -0.4473
vn -0.4915 0.8623 -0.1216
vn -0.1216 0.4915 -0.8623
vn -0.4473 0.4473 -0.7744
vn -0.1296 0.1296 -0.9831
vn -0.4915 0.1216 -0.8623
vn -0.8623 0.1216 -0.4915
vn -0.7744 0.4473 -0.4473
vn -0.9831 0.1296 -0.1296
vn -0.8623 0.4915 -0.1216
vn 0.1296 -0.9831 0.1296
vn 0.4915 -0.8623 0.1216
vn 0.4473 -0.7744 0.4473
vn 0.1216 -0.8623 0.4915
vn 0.8623 -0.4915 0.1216
vn 0.7744 -0.4473 0.4473
vn 0.9831 -0.1296 0.1296
vn 0.8623 -0.1216 0.4915
vn 0.4915 -0.1216 0.8623
vn 0.4473 -0.4473 0.7744
vn 0.1296 -0.1296 0.9831
vn 0.1216 -0.4915 0.8623
vn 0.1296 0.9831 0.1296
vn 0.1216 0.8623 0.4915
vn 0.4473 0.7744 0.4473
vn 0.4915 0.8623 0.1216
vn 0.1216 0.4915 0.8623
vn 0.4473 0.4473 0.7744
vn 0.1296 0.1296 0.9831
vn 0.4915 0.1216 0.8623
vn 0.8623 0.1216 0.4915
vn 0.7744 0.4473 0.4473
vn 0.9831 0.1296 0.1296
vn 0.8623 0.4915 0.1216
vn 0.1296 -0.9831 -0.1296
vn 0.1216 -0.8623 -0.4915
vn 0.4473 -0.7744 -0.4473
vn 0.4915 -0.8623 -0.1216
vn 0.1216 -0.4915 -0.8623
vn 0.4473 -0.4473 -0.7744
vn 0.1296 -0.1296 -0.9831
vn 0.4915 -0.1216 -0.8623
vn 0.8623 -0.1216 -0.4915
vn 0.7744 -0.4473 -0.4473
vn 0.9831 -0.1296 -0.1296
vn 0.8623 -0.4915 -0.1216
vn 0.1296 0.9831 -0.1296
vn 0.4915 0.8623 -0.1216
vn 0.4473 0.7744 -0.4473
vn 0.1216 0.8623 -0.4915
vn 0.8623 0.4915 -0.1216
vn 0.7744 0.4473 -0.4473
vn 0.9831 0.1296 -0.1296
vn 0.8623 0.1216 -0.4915
vn 0.4915 0.1216 -0.8623
vn 0.4473 0.4473 -0.7744
vn 0.1296 0.1296 -0.9831
vn 0.1216 0.4915 -0.8623
vt 0.083333 0.083333
vt 0.083333 0.041721
vt 0.043482 0.043482
vt 0.041721 0.083333
vt 0.083333 0.011133
vt 0.043482 0.021947
vt 0.011133 0.083333
vt 0.021947 0.043482
vt 0.083333 0.916667
vt 0.083333 0.958279
vt 0.043482 0.956518
vt 0.041721 0.916667
vt 0.011133 0.916667
vt 0.021947 0.956518
vt 0.916667 0.083333
vt 0.958279 0.083333
vt 0.956518 0.043482
vt 0.916667 0.041721
vt 0.083333 0.988867
vt 0.043482 0.978053
vt 0.916667 0.916667
vt 0.916667 0.958279
vt 0.956518 0.956518
vt 0.958279 0.916667
vt 0.988867 0.083333
vt 0.978053 0.043482
vt 0.916667 0.011133
vt 0.956518 0.021947
vt 0.988867 0.916667
vt 0.978053 0.956518
vt 0.916667 0.988867
vt 0.956518 0.978053
s 1
f 1/1/1 4/2/2 6/3/3 5/4/4
f 4/2/2 8/5/5 9/6/6 6/3/3
f 2/1/7 7/4/8 9/3/6 8/2/5
f 7/4/8 11/7/9 12/8/10 9/3/6
f 3/1/11 10/2/12 12/3/10 11/4/9
f 10/7/12 5/4/4 6/3/3 12/8/10
f 6/3/3 9/6/6 12/8/10
f 13/9/13 16/10/14 18/11/15 17/12/16
f 16/5/14 20/2/17 21/3/18 18/6/15
f 14/1/19 19/4/20 21/3/18 20/2/17
f 19/4/20 23/7/21 24/8/22 21/3/18
f 15/9/23 22/12/24 24/11/22 23/10/21
f 22/13/24 17/12/16 18/11/15 24/14/22
f 18/6/15 21/3/18 24/8/22
f 25/9/25 28/12/26 30/11/27 29/10/28
f 28/12/26 32/13/29 33/14/30 30/11/27
f 26/15/31 31/16/32 33/17/30 32/18/29
f 31/7/32 35/4/33 36/3/34 33/8/30
f 27/1/35 34/2/36 36/3/34 35/4/33
f 34/19/36 29/10/28 30/11/27 36/20/34
f 30/11/27 33/14/30 36/20/34
f 37/9/37 40/10/38 42/11/39 41/12/40
f 40/10/38 44/19/41 45/20/42 42/11/39
f 38/9/43 43/12/44 45/11/42 44/10/41
f 43/12/44 47/13/45 48/14/46 45/11/42
f 39/21/47 46/22/48 48/23/46 47/24/45
f 46/13/48 41/12/40 42/11/39 48/14/46
f 42/11/39 45/20/42 48/14/46
f 49/15/49 52/16/50 54/17/51 53/18/52
f 52/16/50 56/25/53 57/26/54 54/17/51
f 50/1/55 55/4/56 57/3/54 56/2/53
f 55/25/56 59/16/57 60/17/58 57/26/54
f 51/15/59 58/18/60 60/17/58 59/16/57
f 58/27/60 53/18/52 54/17/51 60/28/58
f 54/17/51 57/26/54 60/28/58
f 61/15/61 64/18/62 66/17/63 65/16/64
f 64/18/62 68/27/65 69/28/66 66/17/63
f 62/21/67 67/24/68 69/23/66 68/22/65
f 67/24/68 71/29/69 72/30/70 69/23/66
f 63/9/71 70/10/72 72/11/70 71/12/69
f 70/25/72 65/16/64 66/17/63 72/26/70
f 66/17/63 69/28/66 72/26/70
f 73/21/73 76/22/74 78/23/75 77/24/76
f 76/22/74 80/31/77 81/32/78 78/23/75
f 74/15/79 79/16/80 81/17/78 80/18/77
f 79/16/80 83/25/81 84/26/82 81/17/78
f 75/15/83 82/18/84 84/17/82 83/16/81
f 82/29/84 77/24/76 78/23/75 84/30/82
f 78/23/75 81/32/78 84/30/82
f 85/21/85 88/24/86 90/23/87 89/22/88
f 88/24/86 92/29/89 93/30/90 90/23/87
f 86/21/91 91/24/92 93/23/90 92/22/89
f 91/29/92 95/24/93 96/23/94 93/30/90
f 87/21/95 94/22/96 96/23/94 95/24/93
f 94/31/96 89/22/88 90/23/87 96/32/94
f 90/23/87 93/30/90 96/32/94
f 25/9/25 1/1/1 5/4/4 28/12/26
f 28/12/26 5/4/4 10/7/12 32/13/29
f 32/18/29 10/2/12 3/1/11 26/15/31
f 2/1/7 13/9/13 17/12/16 7/4/8
f 7/4/8 17/12/16 22/13/24 11/7/9
f 11/4/9 22/12/24 15/9/23 3/1/11
f 14/1/19 37/9/37 41/12/40 19/4/20
f 19/4/20 41/12/40 46/13/48 23/7/21
f 23/10/21 46/22/48 39/21/47 15/9/23
f 38/9/43 27/1/35 35/4/33 43/12/44
f 43/12/44 35/4/33 31/7/32 47/13/45
f 47/24/45 31/16/32 26/15/31 39/21/47
f 73/21/73 25/9/25 29/10/28 76/22/74
f 76/22/74 29/10/28 34/19/36 80/31/77
f 80/18/77 34/2/36 27/1/35 74/15/79
f 37/9/37 85/21/85 89/22/88 40/10/38
f 40/10/38 89/22/88 94/31/96 44/19/41
f 44/10/41 94/22/96 87/21/95 38/9/43
f 86/21/91 75/15/83 83/16/81 91/24/92
f 91/29/92 83/25/81 79/16/80 95/24/93
f 95/24/93 79/16/80 74/15/79 87/21/95
f 49/15/49 73/21/73 77/24/76 52/16/50
f 52/16/50 77/24/76 82/29/84 56/25/53
f 56/2/53 82/18/84 75/15/83 50/1/55
f 85/21/85 61/15/61 65/16/64 88/24/86
f 88/24/86 65/16/64 70/25/72 92/29/89
f 92/22/89 70/10/72 63/9/71 86/21/91
f 62/21/67 51/15/59 59/16/57 67/24/68
f 67/24/68 59/16/57 55/25/56 71/29/69
f 71/12/69 55/4/56 50/1/55 63/9/71
f 1/1/1 49/15/49 53/18/52 4/2/2
f 4/2/2 53/18/52 58/27/60 8/5/5
f 8/2/5 58/18/60 51/15/59 2/1/7
f 61/15/61 14/1/19 20/2/17 64/18/62
f 64/18/62 20/2/17 16/5/14 68/27/65
f 68/22/65 16/10/14 13/9/13 62/21/67
f 25/9/25 73/21/73 49/15/49 1/1/1
f 3/1/11 15/9/23 39/21/47 26/15/31
f 51/15/59 62/21/67 13/9/13 2/1/7
f 85/21/85 37/9/37 14/1/19 61/15/61
f 27/1/35 38/9/43 87/21/95 74/15/79
f 75/15/83 86/21/91 63/9/71 50/1/55
